Fly_normalized_Motion_pl04
version=1
nRows=10
nColumns=43
inDegrees=yes
endheader
time		pelvis_tilt		pelvis_list		pelvis_rotation		pelvis_tx		pelvis_ty		pelvis_tz		hip_flexion_r		hip_adduction_r		hip_rotation_r		knee_angle_r		ankle_angle_r		subtalar_angle_r		mtp_angle_r		hip_flexion_l		hip_adduction_l		hip_rotation_l		knee_angle_l		ankle_angle_l		subtalar_angle_l		mtp_angle_l		lumbar_extension		lumbar_bending		lumbar_rotation		neck_flexion		neck_lateral_bending		neck_rotation		arm_flex_r		arm_add_r		arm_rot_r		elbow_flex_r		pro_sup_r		wrist_flex_r		wrist_dev_r		hand_finger_flex_r		arm_flex_l		arm_add_l		arm_rot_l		elbow_flex_l		pro_sup_l		wrist_flex_l		wrist_dev_l		hand_finger_flex_l		
0.668333		1.894162		-17.148391		88.208451		0.041302		1.817304		1.208197		55.826569		4.671085		3.145786		-71.681460		-6.557777		-6.935852		0.991256		60.185459		-10.014330		-3.241670		-72.035203		-8.437341		-2.138274		26.412735		-34.940703		-0.736272		0.909893		13.688270		-1.988160		3.203137		61.777513		-21.033615		19.434745		69.447061		129.004590		-0.748613		0.203130		-17.986721		60.477318		-24.843888		15.002123		74.919162		122.500671		-5.300134		4.459877		13.264161		
0.672753		1.755444		-17.045153		88.054063		0.041304		1.811795		1.199900		55.818212		4.570980		3.182072		-70.292179		-7.069676		-6.918755		1.352970		59.832234		-10.060582		-3.654824		-70.671078		-8.376706		-1.816277		26.190885		-35.043645		-0.898889		1.005120		13.629994		-1.984578		3.167040		59.978201		-21.372191		19.020949		69.684057		129.095036		-0.721680		0.079512		-17.982156		58.683935		-25.018224		14.384213		75.156968		122.719699		-5.054275		4.158431		13.163293		
0.677172		1.656779		-16.987621		87.908945		0.041139		1.806045		1.191741		55.798097		4.508851		3.193143		-68.823678		-7.485714		-6.863981		1.631865		59.513098		-10.069805		-3.999702		-69.240671		-8.345494		-1.488478		26.142289		-35.091170		-1.031690		1.072791		13.624197		-1.990540		3.141860		58.230467		-21.681811		18.643222		69.787706		129.223054		-0.736050		-0.061855		-17.963852		56.914217		-25.174258		13.785035		75.335402		122.901467		-4.866579		3.887161		13.122102		
0.681591		1.577899		-16.881823		87.831317		0.041016		1.799960		1.183324		55.744922		4.390789		3.117022		-67.457033		-7.919497		-6.714595		1.739732		59.165363		-10.081683		-4.320142		-67.889349		-8.436175		-1.156563		26.196474		-35.168585		-1.112289		1.106517		13.489575		-2.002133		3.113651		56.377510		-22.044072		18.297433		70.001655		129.239806		-0.845178		-0.221867		-17.965159		55.042049		-25.426562		13.211376		75.646504		122.943422		-4.860550		3.638155		13.123168		
0.686010		1.415603		-16.777680		87.668252		0.040889		1.793769		1.174820		55.655550		4.278398		3.179815		-66.063420		-8.338139		-6.556108		1.970776		58.735203		-10.079324		-4.706866		-66.466290		-8.504077		-0.623241		26.452877		-35.253617		-1.286865		1.122434		13.600899		-2.062362		3.085047		54.452054		-22.212161		17.640802		70.113229		129.336300		-0.942802		-0.476283		-17.906635		52.987177		-25.401306		12.103615		75.933589		123.205349		-4.831500		3.192266		13.167932		
0.690429		1.353968		-16.618381		87.617608		0.040674		1.787244		1.166188		55.507497		4.148227		3.079034		-64.739977		-8.708407		-6.309254		2.079258		58.303021		-10.090846		-5.026902		-65.118952		-8.755218		-0.292316		26.620505		-35.353279		-1.325485		1.128768		13.355620		-2.105448		3.067452		52.574868		-22.600665		17.319223		70.298089		129.356473		-1.032095		-0.635718		-17.897014		51.036984		-25.632140		11.453783		76.234279		123.398742		-4.837406		2.930472		13.212248		
0.694848		1.183797		-16.345137		87.389413		0.040385		1.780969		1.157385		55.145824		4.043498		3.182585		-63.308819		-8.879922		-5.910717		2.767426		57.579295		-10.093182		-5.476171		-63.599453		-8.908101		0.053324		27.675695		-35.611050		-1.486090		1.094210		13.504188		-2.316244		3.160356		50.817060		-22.722714		16.755874		70.243450		129.891556		-0.791241		-1.047294		-17.755131		48.780178		-25.439972		9.727721		76.604951		125.014615		-4.286102		2.059944		13.502422		
0.699268		1.212685		-16.224359		87.417141		0.040162		1.774018		1.148767		54.954711		3.972921		3.060626		-61.916906		-9.278260		-5.648083		2.832733		57.176392		-10.066661		-5.607895		-62.190365		-9.377498		0.173088		27.787669		-35.638886		-1.427428		1.131757		13.151067		-2.346820		3.153503		48.938119		-23.133313		16.467257		70.316833		129.844157		-0.978704		-1.026987		-17.867520		46.882791		-25.605077		9.157758		76.743584		125.059241		-4.408183		2.016149		13.461410		
0.703687		1.236165		-16.110572		87.404736		0.039872		1.766851		1.140090		54.740536		3.911015		2.929381		-60.516266		-9.572265		-5.383467		2.873619		56.740177		-10.031470		-5.717732		-60.750626		-9.807519		0.212603		27.838964		-35.658259		-1.367050		1.194712		12.938880		-2.433502		3.139117		47.073725		-23.542375		16.172651		70.344761		129.770577		-1.164265		-0.997763		-18.007835		44.906388		-25.702750		8.465427		76.886977		124.978784		-4.655668		1.961991		13.363963		
0.708106		1.255006		-16.003931		87.389034		0.039631		1.759433		1.131378		54.506566		3.858154		2.802011		-59.108801		-9.813349		-5.115207		2.910422		56.285061		-9.997583		-5.827004		-59.286025		-10.211954		0.202326		27.864326		-35.653704		-1.309529		1.239382		12.727298		-2.539878		3.141739		45.239424		-23.980038		15.965064		70.325523		129.717818		-1.280025		-0.983574		-18.131118		42.922895		-25.859112		7.804698		77.013992		124.888751		-4.868943		1.860673		13.277281		
